<svg width="226" height="81" viewBox="0 0 226 81" fill="none" xmlns="http://www.w3.org/2000/svg">
<path d="M60.737 55.2663C64.5083 38.5094 57.8543 28.1628 40.8232 22.3008V25.2095C56.5722 30.8762 60.7508 39.2886 58.2478 53.8119L60.737 55.2663Z" fill="#2A8FC5"/>
<path d="M57.7498 61.0833L54.7627 60.1137C48.2631 66.2581 45.6815 69.2034 44.8058 71.7486C44.5543 74.3197 44.25 75.6458 43.3123 78.0508H27.8791C26.7235 76.0207 26.597 74.734 26.8834 72.2334C26.0765 69.8917 25.1242 68.6305 22.9007 66.4159L16.4287 59.6289L13.9395 61.0833C19.9593 69.008 22.6728 70.5784 23.8963 72.2334C23.8761 76.5123 24.4379 78.3395 26.3856 80.9595H45.3037C47.1496 77.8377 47.6251 75.7752 47.7929 71.7486C48.1893 70.7508 50.956 68.2341 57.7498 61.0833Z" fill="#2A8FC5"/>
<path d="M32.858 24.7251V21.8164C29.9075 22.2301 28.3963 22.6483 25.8882 23.7556C23.1882 24.9182 21.9188 25.6618 19.914 27.1491C17.5753 29.0206 16.5126 30.0838 14.9356 31.9969C13.4015 33.8235 12.7406 34.9492 11.9485 36.8448C10.8581 38.9231 10.4464 40.0656 9.95713 42.1775C9.17266 45.1178 9.09312 46.5874 9.45929 48.9645C9.6171 51.7526 10.0796 53.0246 10.9528 55.2667L13.442 53.8124C13.1889 53.3946 12.9925 52.7369 12.4464 50.4188C12.1102 48.8959 12.0183 47.9198 11.9485 46.0558C12.1704 43.0379 12.6189 41.3598 13.9399 38.2992C15.793 34.8761 17.3352 32.9575 20.9097 30.0578C24.8369 27.2607 27.3951 26.0648 32.858 24.7251Z" fill="#2A8FC5"/>
<path d="M21.4073 34.9046C22.8321 31.9918 24.6511 30.4134 28.3771 27.6328C23.391 29.6502 20.8266 30.977 17.9224 34.9046H21.4073Z" fill="#2A8FC5"/>
<path d="M13.4419 47.5095C13.9383 42.4295 15.484 37.1343 16.9268 36.3594H20.4117C18.746 40.8393 18.4345 43.279 18.9182 47.5095H13.4419Z" fill="#2A8FC5"/>
<path d="M33.356 76.5966L34.3516 47.9941C35.3281 48.4349 35.8751 48.4805 36.8409 48.4789L37.8366 76.5966H33.356Z" fill="#FFD700"/>
<path d="M35.3473 7.27148L33.356 37.3283C35.1543 36.8661 36.0978 36.7333 37.3387 37.3283L35.8452 31.5108C38.9513 29.4562 39.8674 27.9034 39.3301 24.239L36.8409 7.27148H35.3473Z" fill="#FFD700"/>
<path d="M35.3472 29.5719L35.845 11.6348L36.8407 25.2088C36.9133 27.2972 36.5696 28.2426 35.3472 29.5719Z" fill="white"/>
<path d="M35.3472 6.30223L35.845 0L36.8407 6.30223H35.3472Z" fill="#FFD700"/>
<path d="M40.3257 46.5396L41.8192 43.6309L65.2179 61.0832L64.2222 62.0528L47.7934 54.2962C45.3796 52.9725 44.7652 51.4353 44.3084 47.9939L40.3257 46.5396Z" fill="#FFD700"/>
<path d="M62.2308 59.6297L47.2954 49.4492C48.1336 51.4271 48.8523 52.3528 50.7803 53.3275L62.2308 59.6297Z" fill="white"/>
<path d="M71.1919 65.4467L65.2178 62.5379L66.2135 61.5684L71.1919 65.4467Z" fill="#FFD700"/>
<path d="M26.8839 47.9939L31.3645 46.5396C30.7468 45.6097 30.4101 45.02 29.871 43.6309L5.47656 61.568L6.47225 62.5376L23.399 54.781C25.9834 53.0448 26.7843 51.6338 26.8839 47.9939Z" fill="#FFD700"/>
<path d="M9.95654 59.1434L24.394 48.9629C23.4218 50.8343 22.6948 51.6751 20.9091 52.8412L9.95654 59.1434Z" fill="white"/>
<path d="M0 65.4462L5.47629 63.0223L4.4806 62.0527L0 65.4462Z" fill="#FFD700"/>
<path d="M225.835 62.9778L213.452 38L210.799 43.1678C210.141 47.138 210.267 49.1437 210.799 52.6422L216.106 62.9778H225.835Z" fill="white"/>
<path d="M201.069 60.3939L207.261 49.1969L211.683 56.0874C212.201 59.378 212.224 61.0453 210.799 62.9778H201.069V60.3939Z" fill="white"/>
<path d="M183.38 54.3648V38.8613H180.726C177.413 40.4538 176.094 41.7975 174.535 44.8905V62.9778H186.918C191.25 61.3667 192.48 59.3656 193.109 54.3648H183.38Z" fill="white"/>
<path d="M148 38H166.574C167.053 41.7913 165.494 42.9905 162.152 44.8904H148C144.864 46.1833 143.831 47.4021 142.693 50.0582V44.0291C143.687 41.3165 144.309 39.8259 148 38Z" fill="white"/>
<path d="M146.231 47.4743C144.787 48.156 144.218 48.7316 143.577 50.0582C144.032 52.74 144.769 53.4105 146.231 54.3648H163.036C166.421 51.649 166.648 50.1964 163.036 47.4743H146.231Z" fill="white"/>
<path d="M162.152 56.0874C164.415 55.2044 165.423 54.1013 166.574 51.7808C167.279 54.8552 167.191 56.5629 166.574 59.5326C165.095 61.8297 164.107 62.5158 162.152 62.9778H143.577C143.612 59.9666 143.965 58.3933 148 56.9487L162.152 56.0874Z" fill="white"/>
<path d="M132.963 38H112.62C110.882 39.8929 110.759 41.3286 112.62 43.1678H132.963C134.961 41.4162 134.974 40.1742 132.963 38Z" fill="white"/>
<path d="M136.501 48.3356H109.081C107.357 50.6727 107.446 51.8082 109.081 53.5035H136.501C138.599 51.3688 138.485 50.4261 136.501 48.3356Z" fill="white"/>
<path d="M112.62 58.6713H132.963C134.832 60.3917 134.697 61.3321 132.963 62.9778H112.62C111.017 61.3921 110.939 60.4497 112.62 58.6713Z" fill="white"/>
<path d="M102.005 38H82.5458C79.4867 40.2782 78.9236 41.8393 79.0078 44.8904H86.9683V58.6713C89.4253 62.5689 91.0295 63.1316 94.0443 62.9778V44.8904H97.5823C101.783 42.738 102.209 41.1117 102.005 38Z" fill="white"/>
<path d="M35.8341 36.8438C32.3937 36.8438 29.8706 39.5428 29.8706 42.6612C29.8706 45.9098 32.6071 48.4786 35.8341 48.4786C38.9641 48.4786 41.8189 46.1125 41.8189 42.6612C41.8189 39.4271 39.2505 36.8438 35.8341 36.8438ZM35.8551 47.4186C33.1441 47.4186 30.9481 45.2361 30.9481 42.6612C30.9481 40.1883 33.0061 37.893 35.8556 37.893C38.5663 37.893 40.7414 39.9915 40.7414 42.661C40.7411 45.5155 38.3401 47.4186 35.8551 47.4186Z" fill="#FFD700"/>
<path d="M35.8358 37.8145C32.9688 37.8145 30.8662 40.0636 30.8662 42.6623C30.8662 45.3695 33.1467 47.5102 35.8358 47.5102C38.4441 47.5102 40.8231 45.5384 40.8231 42.6623C40.8231 39.9673 38.6828 37.8145 35.8358 37.8145ZM35.8533 46.6268C33.5941 46.6268 31.7641 44.8081 31.7641 42.6623C31.7641 40.6016 33.4791 38.6888 35.8537 38.6888C38.1127 38.6888 39.9252 40.4376 39.9252 42.6621C39.925 45.0409 37.9242 46.6268 35.8533 46.6268Z" fill="#FFD700"/>
<path d="M30.3685 43.1465L29.8706 43.6313V44.1161V44.6008L30.3685 44.1161V43.1465Z" fill="#FFD700"/>
<path d="M32.8577 46.0552L31.3641 46.54H30.3685V46.0552H32.8577Z" fill="#FFD700"/>
</svg>
