<svg width="98" height="127" viewBox="0 0 98 127" fill="none" xmlns="http://www.w3.org/2000/svg">
<path d="M34.8492 44.1158C34.3444 43.9324 34.0526 43.6784 33.8535 42.6614C34.0859 41.9171 34.3103 41.6333 34.7884 41.2959C34.6777 41.851 34.6701 42.1493 34.8492 42.6614C35.5494 42.8917 35.8965 42.9527 36.3427 42.6614C36.6494 42.2226 36.7243 41.8656 36.8406 41.207C37.1753 41.7707 37.2669 42.0947 37.3384 42.6614C37.0772 43.4501 36.8796 43.7956 36.3427 44.1158C35.8763 44.2977 35.5244 44.3859 34.8492 44.1158Z" fill="#FFD700"/>
<path d="M60.737 55.2663C64.5083 38.5094 57.8543 28.1628 40.8232 22.3008V25.2095C56.5722 30.8762 60.7508 39.2886 58.2478 53.8119L60.737 55.2663Z" fill="#2A8FC5"/>
<path d="M57.7498 61.0833L54.7627 60.1137C48.2631 66.2581 45.6815 69.2034 44.8058 71.7486C44.5543 74.3197 44.25 75.6458 43.3123 78.0508H27.8791C26.7235 76.0207 26.597 74.734 26.8834 72.2334C26.0765 69.8917 25.1242 68.6305 22.9007 66.4159L16.4287 59.6289L13.9395 61.0833C19.9593 69.008 22.6728 70.5784 23.8963 72.2334C23.8761 76.5123 24.4379 78.3395 26.3856 80.9595H45.3037C47.1496 77.8377 47.6251 75.7752 47.7929 71.7486C48.1893 70.7508 50.956 68.2341 57.7498 61.0833Z" fill="#2A8FC5"/>
<path d="M32.858 24.7251V21.8164C29.9075 22.2301 28.3963 22.6483 25.8882 23.7556C23.1882 24.9182 21.9188 25.6618 19.914 27.1491C17.5753 29.0206 16.5126 30.0838 14.9356 31.9969C13.4015 33.8235 12.7406 34.9492 11.9485 36.8448C10.8581 38.9231 10.4464 40.0656 9.95713 42.1775C9.17266 45.1178 9.09312 46.5874 9.45929 48.9645C9.6171 51.7526 10.0796 53.0246 10.9528 55.2667L13.442 53.8124C13.1889 53.3946 12.9925 52.7369 12.4464 50.4188C12.1102 48.8959 12.0183 47.9198 11.9485 46.0558C12.1704 43.0379 12.6189 41.3598 13.9399 38.2992C15.793 34.8761 17.3352 32.9575 20.9097 30.0578C24.8369 27.2607 27.3951 26.0648 32.858 24.7251Z" fill="#2A8FC5"/>
<path d="M21.4073 34.9046C22.8321 31.9918 24.6511 30.4134 28.3771 27.6328C23.391 29.6502 20.8266 30.977 17.9224 34.9046H21.4073Z" fill="#2A8FC5"/>
<path d="M13.4419 47.5095C13.9383 42.4295 15.484 37.1343 16.9268 36.3594H20.4117C18.746 40.8393 18.4345 43.279 18.9182 47.5095H13.4419Z" fill="#2A8FC5"/>
<path d="M33.356 76.5966L34.3516 47.9941C35.3281 48.4349 35.8751 48.4805 36.8409 48.4789L37.8366 76.5966H33.356Z" fill="#FFD700"/>
<path d="M35.3473 7.27148L33.356 37.3283C35.1543 36.8661 36.0978 36.7333 37.3387 37.3283L35.8452 31.5108C38.9513 29.4562 39.8674 27.9034 39.3301 24.239L36.8409 7.27148H35.3473Z" fill="#FFD700"/>
<path d="M35.3472 29.5719L35.845 11.6348L36.8407 25.2088C36.9133 27.2972 36.5696 28.2426 35.3472 29.5719Z" fill="white"/>
<path d="M35.3472 6.30223L35.845 0L36.8407 6.30223H35.3472Z" fill="#FFD700"/>
<path d="M40.3257 46.5396L41.8192 43.6309L65.2179 61.0832L64.2222 62.0528L47.7934 54.2962C45.3796 52.9725 44.7652 51.4353 44.3084 47.9939L40.3257 46.5396Z" fill="#FFD700"/>
<path d="M62.2308 59.6297L47.2954 49.4492C48.1336 51.4271 48.8523 52.3528 50.7803 53.3275L62.2308 59.6297Z" fill="white"/>
<path d="M71.1919 65.4467L65.2178 62.5379L66.2135 61.5684L71.1919 65.4467Z" fill="#FFD700"/>
<path d="M26.8839 47.9939L31.3645 46.5396C30.7468 45.6097 30.4101 45.02 29.871 43.6309L5.47656 61.568L6.47225 62.5376L23.399 54.781C25.9834 53.0448 26.7843 51.6338 26.8839 47.9939Z" fill="#FFD700"/>
<path d="M9.95654 59.1434L24.394 48.9629C23.4218 50.8343 22.6948 51.6751 20.9091 52.8412L9.95654 59.1434Z" fill="white"/>
<path d="M0 65.4462L5.47629 63.0223L4.4806 62.0527L0 65.4462Z" fill="#FFD700"/>
<path d="M15.3862 106.17V105.916H17.3882V106.17H16.6069V111.727L16.1577 111.824L12.3198 107V111.521H12.896C12.9285 111.521 12.9611 111.525 12.9937 111.531C13.0978 111.551 13.1499 111.632 13.1499 111.775H11.1479V111.521H11.9292V106.17H11.1479V105.916H12.5054L16.2163 110.545V106.17H15.3862ZM21.3042 111.873C20.8485 111.867 20.5815 111.574 20.5034 110.994C20.4448 111.131 20.3569 111.261 20.2397 111.385C19.9142 111.71 19.5138 111.873 19.0386 111.873C18.8433 111.873 18.6577 111.837 18.4819 111.766C18.0457 111.583 17.8276 111.245 17.8276 110.75C17.8276 110.607 17.8472 110.473 17.8862 110.35C18.1076 109.712 18.9832 109.393 20.5132 109.393V108.777C20.4937 108.146 20.1779 107.811 19.5659 107.771C19.3055 107.771 19.1134 107.853 18.9897 108.016C18.9572 108.061 18.8953 108.204 18.8042 108.445C18.7326 108.634 18.6219 108.729 18.4722 108.729C18.4396 108.729 18.4071 108.725 18.3745 108.719C18.1857 108.686 18.0913 108.569 18.0913 108.367C18.0913 108.257 18.1304 108.146 18.2085 108.035C18.4559 107.697 18.9442 107.527 19.6733 107.527C19.7319 107.527 19.7905 107.527 19.8491 107.527C20.7801 107.579 21.2456 108.071 21.2456 109.002V111.062C21.2521 111.388 21.34 111.557 21.5093 111.57C21.7176 111.564 21.8446 111.323 21.8901 110.848L22.144 110.857C22.144 110.89 22.1408 110.926 22.1343 110.965C22.0822 111.57 21.8055 111.873 21.3042 111.873ZM19.3608 111.482C19.5041 111.482 19.6506 111.45 19.8003 111.385C20.1779 111.202 20.4155 110.887 20.5132 110.438V109.656C20.0054 109.663 19.618 109.695 19.3511 109.754C18.8498 109.871 18.5991 110.148 18.5991 110.584C18.5991 110.695 18.6089 110.796 18.6284 110.887C18.7196 111.284 18.9637 111.482 19.3608 111.482ZM22.3882 107.869V107.625H23.0718V106.697L23.8042 106.492V107.625H25.3179V107.869H23.8042V110.838C23.8107 111.326 23.9897 111.577 24.3413 111.59C24.6538 111.544 24.8914 111.251 25.0542 110.711L25.3179 110.76C25.3179 110.766 25.3179 110.773 25.3179 110.779C25.1681 111.515 24.7938 111.883 24.1948 111.883C23.4917 111.857 23.1174 111.437 23.0718 110.623V107.869H22.3882ZM27.6616 111.531C27.6942 111.531 27.7267 111.535 27.7593 111.541C27.8569 111.554 27.9058 111.632 27.9058 111.775H25.6597V111.531C25.881 111.531 26.0405 111.518 26.1382 111.492C26.34 111.427 26.4409 111.245 26.4409 110.945V107.869H25.6597V107.625H27.1733V111.531H27.6616ZM27.2905 106.199C27.2905 106.277 27.2743 106.352 27.2417 106.424C27.1506 106.632 26.991 106.736 26.7632 106.736C26.6916 106.736 26.62 106.723 26.5483 106.697C26.3335 106.606 26.2261 106.44 26.2261 106.199C26.2261 106.121 26.2424 106.046 26.2749 105.975C26.3726 105.766 26.5353 105.662 26.7632 105.662C26.8348 105.662 26.9097 105.678 26.9878 105.711C27.1896 105.809 27.2905 105.971 27.2905 106.199ZM29.4194 109.695C29.4194 109.975 29.4422 110.229 29.4878 110.457C29.6571 111.238 30.0705 111.629 30.728 111.629C30.8517 111.629 30.9722 111.613 31.0894 111.58C31.6883 111.391 31.9878 110.75 31.9878 109.656C31.9878 109.467 31.978 109.295 31.9585 109.139C31.8413 108.227 31.4214 107.771 30.6987 107.771C30.5425 107.771 30.3927 107.798 30.2495 107.85C29.6961 108.071 29.4194 108.686 29.4194 109.695ZM30.728 107.527C31.1577 107.527 31.5516 107.641 31.9097 107.869C32.5151 108.266 32.8179 108.875 32.8179 109.695C32.8179 110.301 32.6291 110.805 32.2515 111.209C31.8413 111.652 31.3237 111.873 30.6987 111.873C30.256 111.873 29.8524 111.749 29.4878 111.502C28.8888 111.092 28.5894 110.477 28.5894 109.656C28.5894 109.064 28.7814 108.569 29.1655 108.172C29.5822 107.742 30.103 107.527 30.728 107.527ZM35.4058 111.531C35.4448 111.531 35.4774 111.535 35.5034 111.541C35.6011 111.554 35.6499 111.632 35.6499 111.775H33.5015V111.531C33.7228 111.531 33.8823 111.515 33.98 111.482C34.1493 111.424 34.2339 111.245 34.2339 110.945V107.869H33.5015V107.625H34.9175L34.9565 108.602C35.0282 108.419 35.1226 108.253 35.2397 108.104C35.5522 107.719 35.9494 107.527 36.4312 107.527C36.672 107.527 36.8966 107.589 37.105 107.713C37.5542 107.993 37.7788 108.458 37.7788 109.109V111.531H38.2671C38.3062 111.531 38.3387 111.535 38.3647 111.541C38.4624 111.554 38.5112 111.632 38.5112 111.775H36.314V111.531C36.5353 111.531 36.6948 111.515 36.7925 111.482C36.9618 111.424 37.0464 111.245 37.0464 110.945V109.012C37.0464 108.823 37.0171 108.654 36.9585 108.504C36.8153 108.133 36.5451 107.947 36.1479 107.947C35.9657 107.947 35.7866 108.003 35.6108 108.113C35.2007 108.38 34.9858 108.816 34.9663 109.422V111.531H35.4058ZM42.5737 111.873C42.118 111.867 41.8511 111.574 41.7729 110.994C41.7144 111.131 41.6265 111.261 41.5093 111.385C41.1838 111.71 40.7834 111.873 40.3081 111.873C40.1128 111.873 39.9272 111.837 39.7515 111.766C39.3153 111.583 39.0972 111.245 39.0972 110.75C39.0972 110.607 39.1167 110.473 39.1558 110.35C39.3771 109.712 40.2528 109.393 41.7827 109.393V108.777C41.7632 108.146 41.4474 107.811 40.8354 107.771C40.575 107.771 40.383 107.853 40.2593 108.016C40.2267 108.061 40.1649 108.204 40.0737 108.445C40.0021 108.634 39.8914 108.729 39.7417 108.729C39.7091 108.729 39.6766 108.725 39.644 108.719C39.4552 108.686 39.3608 108.569 39.3608 108.367C39.3608 108.257 39.3999 108.146 39.478 108.035C39.7254 107.697 40.2137 107.527 40.9429 107.527C41.0015 107.527 41.0601 107.527 41.1187 107.527C42.0496 107.579 42.5151 108.071 42.5151 109.002V111.062C42.5216 111.388 42.6095 111.557 42.7788 111.57C42.9871 111.564 43.1141 111.323 43.1597 110.848L43.4136 110.857C43.4136 110.89 43.4103 110.926 43.4038 110.965C43.3517 111.57 43.075 111.873 42.5737 111.873ZM40.6304 111.482C40.7736 111.482 40.9201 111.45 41.0698 111.385C41.4474 111.202 41.6851 110.887 41.7827 110.438V109.656C41.2749 109.663 40.8875 109.695 40.6206 109.754C40.1193 109.871 39.8687 110.148 39.8687 110.584C39.8687 110.695 39.8784 110.796 39.8979 110.887C39.9891 111.284 40.2332 111.482 40.6304 111.482ZM45.7769 111.531C45.8159 111.531 45.8485 111.535 45.8745 111.541C45.9722 111.554 46.021 111.632 46.021 111.775H43.7847V111.531C44.006 111.531 44.1655 111.515 44.2632 111.482C44.4325 111.424 44.5171 111.245 44.5171 110.945V105.672H43.7847V105.428H45.2495V111.531H45.7769ZM50.9722 111.775H48.5796V111.521H49.3608V106.17H48.5796V105.916H50.9722V106.17H50.2007V111.521H50.7183C50.7508 111.521 50.7834 111.525 50.8159 111.531C50.9201 111.551 50.9722 111.632 50.9722 111.775ZM53.5601 111.531C53.5991 111.531 53.6317 111.535 53.6577 111.541C53.7554 111.554 53.8042 111.632 53.8042 111.775H51.6558V111.531C51.8771 111.531 52.0366 111.515 52.1343 111.482C52.3035 111.424 52.3882 111.245 52.3882 110.945V107.869H51.6558V107.625H53.0718L53.1108 108.602C53.1825 108.419 53.2769 108.253 53.394 108.104C53.7065 107.719 54.1037 107.527 54.5854 107.527C54.8263 107.527 55.0509 107.589 55.2593 107.713C55.7085 107.993 55.9331 108.458 55.9331 109.109V111.531H56.4214C56.4604 111.531 56.493 111.535 56.519 111.541C56.6167 111.554 56.6655 111.632 56.6655 111.775H54.4683V111.531C54.6896 111.531 54.8491 111.515 54.9468 111.482C55.116 111.424 55.2007 111.245 55.2007 110.945V109.012C55.2007 108.823 55.1714 108.654 55.1128 108.504C54.9696 108.133 54.6994 107.947 54.3022 107.947C54.12 107.947 53.9409 108.003 53.7651 108.113C53.355 108.38 53.1401 108.816 53.1206 109.422V111.531H53.5601ZM58.7651 111.609C59.2144 111.609 59.5171 111.473 59.6733 111.199C59.7319 111.102 59.7612 110.994 59.7612 110.877C59.7612 110.604 59.5627 110.369 59.1655 110.174C59.0809 110.128 58.9409 110.063 58.7456 109.979C58.2118 109.757 57.8569 109.549 57.6812 109.354C57.4924 109.139 57.3979 108.888 57.3979 108.602C57.3979 108.152 57.6453 107.837 58.1401 107.654C58.368 107.57 58.6154 107.527 58.8823 107.527C59.312 107.527 59.6831 107.618 59.9956 107.801C59.9956 107.612 60.0412 107.505 60.1323 107.479C60.1714 107.472 60.2137 107.469 60.2593 107.469V108.689H60.0054C59.9924 108.09 59.6603 107.788 59.0093 107.781C58.521 107.781 58.2183 107.924 58.1011 108.211C58.0685 108.289 58.0522 108.37 58.0522 108.455C58.0522 108.735 58.2541 108.973 58.6577 109.168C58.7489 109.214 58.8921 109.275 59.0874 109.354C59.6147 109.568 59.9663 109.773 60.1421 109.969C60.3309 110.177 60.4253 110.424 60.4253 110.711C60.4253 111.238 60.1453 111.59 59.5854 111.766C59.3706 111.837 59.1362 111.873 58.8823 111.873C58.4136 111.867 58.0067 111.749 57.6616 111.521C57.6616 111.691 57.6193 111.788 57.5347 111.814C57.4956 111.821 57.45 111.824 57.3979 111.824V110.34H57.6714C57.6844 111.18 58.049 111.603 58.7651 111.609ZM61.0112 107.869V107.625H61.6948V106.697L62.4272 106.492V107.625H63.9409V107.869H62.4272V110.838C62.4338 111.326 62.6128 111.577 62.9644 111.59C63.2769 111.544 63.5145 111.251 63.6772 110.711L63.9409 110.76C63.9409 110.766 63.9409 110.773 63.9409 110.779C63.7912 111.515 63.4168 111.883 62.8179 111.883C62.1147 111.857 61.7404 111.437 61.6948 110.623V107.869H61.0112ZM66.2847 111.531C66.3172 111.531 66.3498 111.535 66.3823 111.541C66.48 111.554 66.5288 111.632 66.5288 111.775H64.2827V111.531C64.5041 111.531 64.6636 111.518 64.7612 111.492C64.9631 111.427 65.064 111.245 65.064 110.945V107.869H64.2827V107.625H65.7964V111.531H66.2847ZM65.9136 106.199C65.9136 106.277 65.8973 106.352 65.8647 106.424C65.7736 106.632 65.6141 106.736 65.3862 106.736C65.3146 106.736 65.243 106.723 65.1714 106.697C64.9565 106.606 64.8491 106.44 64.8491 106.199C64.8491 106.121 64.8654 106.046 64.8979 105.975C64.9956 105.766 65.1584 105.662 65.3862 105.662C65.4578 105.662 65.5327 105.678 65.6108 105.711C65.8127 105.809 65.9136 105.971 65.9136 106.199ZM67.0171 107.869V107.625H67.7007V106.697L68.4331 106.492V107.625H69.9468V107.869H68.4331V110.838C68.4396 111.326 68.6187 111.577 68.9702 111.59C69.2827 111.544 69.5203 111.251 69.6831 110.711L69.9468 110.76C69.9468 110.766 69.9468 110.773 69.9468 110.779C69.797 111.515 69.4227 111.883 68.8237 111.883C68.1206 111.857 67.7463 111.437 67.7007 110.623V107.869H67.0171ZM75.0249 111.531C75.064 111.531 75.0965 111.535 75.1226 111.541C75.2202 111.554 75.269 111.632 75.269 111.775H73.8921L73.8237 110.779C73.7521 110.962 73.6577 111.128 73.5405 111.277C73.228 111.674 72.8276 111.873 72.3394 111.873C71.4149 111.867 70.9494 111.307 70.9429 110.193V107.869H70.1909V107.625H71.6753V110.34C71.6753 110.444 71.6818 110.542 71.6948 110.633C71.7795 111.18 72.0887 111.453 72.6226 111.453C72.8179 111.453 73.0067 111.391 73.189 111.268C73.5991 110.994 73.8042 110.564 73.8042 109.979V107.869H73.0034V107.625H74.5366V111.531H75.0249ZM75.728 107.869V107.625H76.4116V106.697L77.144 106.492V107.625H78.6577V107.869H77.144V110.838C77.1506 111.326 77.3296 111.577 77.6812 111.59C77.9937 111.544 78.2313 111.251 78.394 110.711L78.6577 110.76C78.6577 110.766 78.6577 110.773 78.6577 110.779C78.508 111.515 78.1336 111.883 77.5347 111.883C76.8315 111.857 76.4572 111.437 76.4116 110.623V107.869H75.728ZM81.1382 107.771C80.9689 107.771 80.8094 107.811 80.6597 107.889C80.2039 108.117 79.9598 108.605 79.9272 109.354L80.9624 109.383C81.2619 109.389 81.493 109.376 81.6558 109.344C81.9683 109.272 82.1245 109.074 82.1245 108.748C82.1245 108.605 82.0985 108.471 82.0464 108.348C81.8966 107.964 81.5939 107.771 81.1382 107.771ZM82.8374 110.838C82.7983 110.929 82.7528 111.02 82.7007 111.111C82.3687 111.619 81.8511 111.873 81.1479 111.873C80.7052 111.873 80.3114 111.759 79.9663 111.531C79.3869 111.141 79.0972 110.542 79.0972 109.734C79.0972 109.292 79.1883 108.895 79.3706 108.543C79.7222 107.866 80.3049 107.527 81.1187 107.527C81.5353 107.527 81.9032 107.622 82.2222 107.811C82.6714 108.071 82.896 108.423 82.896 108.865C82.896 109.106 82.8081 109.292 82.6323 109.422C82.4045 109.585 81.8934 109.66 81.0991 109.646L79.9272 109.627C79.9338 109.9 79.9631 110.151 80.0151 110.379C80.1909 111.193 80.6206 111.6 81.3042 111.6C81.3628 111.6 81.4246 111.596 81.4897 111.59C81.9976 111.525 82.3654 111.245 82.5933 110.75L82.8374 110.838ZM86.3628 109.695C86.3628 109.975 86.3856 110.229 86.4312 110.457C86.6004 111.238 87.0138 111.629 87.6714 111.629C87.7951 111.629 87.9155 111.613 88.0327 111.58C88.6317 111.391 88.9312 110.75 88.9312 109.656C88.9312 109.467 88.9214 109.295 88.9019 109.139C88.7847 108.227 88.3647 107.771 87.6421 107.771C87.4858 107.771 87.3361 107.798 87.1929 107.85C86.6395 108.071 86.3628 108.686 86.3628 109.695ZM87.6714 107.527C88.1011 107.527 88.495 107.641 88.853 107.869C89.4585 108.266 89.7612 108.875 89.7612 109.695C89.7612 110.301 89.5724 110.805 89.1948 111.209C88.7847 111.652 88.2671 111.873 87.6421 111.873C87.1994 111.873 86.7957 111.749 86.4312 111.502C85.8322 111.092 85.5327 110.477 85.5327 109.656C85.5327 109.064 85.7248 108.569 86.1089 108.172C86.5256 107.742 87.0464 107.527 87.6714 107.527ZM92.603 111.531C92.6421 111.531 92.6746 111.535 92.7007 111.541C92.7983 111.554 92.8472 111.632 92.8472 111.775H90.4546V111.531C90.6759 111.531 90.8354 111.515 90.9331 111.482C91.1024 111.424 91.187 111.245 91.187 110.945V107.869H90.5034V107.625H91.187V107.469C91.187 106.935 91.2879 106.492 91.4897 106.141C91.7892 105.633 92.245 105.379 92.8569 105.379C93.0913 105.379 93.3029 105.415 93.4917 105.486C93.8172 105.623 93.98 105.812 93.98 106.053C93.98 106.079 93.9767 106.108 93.9702 106.141C93.9312 106.323 93.8042 106.414 93.5894 106.414C93.5243 106.414 93.4657 106.395 93.4136 106.355C93.3615 106.316 93.2769 106.193 93.1597 105.984C93.0229 105.743 92.8537 105.623 92.6519 105.623C92.5672 105.623 92.4891 105.639 92.4175 105.672C92.0854 105.822 91.9194 106.453 91.9194 107.566V107.625H93.0425V107.869H91.9194V111.531H92.603Z" fill="white"/>
<path d="M15.0737 123.41H12.3882V123.156H13.3159V117.805H12.7886C12.2873 117.844 11.9325 118.182 11.7241 118.82L11.5679 119.475H11.2944L11.3433 117.551H16.1675L16.2163 119.475H15.9429L15.7866 118.82C15.7801 118.807 15.7769 118.788 15.7769 118.762C15.6011 118.124 15.2495 117.805 14.7222 117.805H14.1558V123.156H14.8198C14.8524 123.156 14.8849 123.16 14.9175 123.166C15.0216 123.186 15.0737 123.267 15.0737 123.41ZM18.9897 119.406C18.8205 119.406 18.661 119.445 18.5112 119.523C18.0555 119.751 17.8114 120.24 17.7788 120.988L18.814 121.018C19.1134 121.024 19.3446 121.011 19.5073 120.979C19.8198 120.907 19.9761 120.708 19.9761 120.383C19.9761 120.24 19.95 120.106 19.8979 119.982C19.7482 119.598 19.4455 119.406 18.9897 119.406ZM20.689 122.473C20.6499 122.564 20.6043 122.655 20.5522 122.746C20.2202 123.254 19.7026 123.508 18.9995 123.508C18.5568 123.508 18.1629 123.394 17.8179 123.166C17.2384 122.775 16.9487 122.176 16.9487 121.369C16.9487 120.926 17.0399 120.529 17.2222 120.178C17.5737 119.501 18.1564 119.162 18.9702 119.162C19.3869 119.162 19.7547 119.257 20.0737 119.445C20.5229 119.706 20.7476 120.057 20.7476 120.5C20.7476 120.741 20.6597 120.926 20.4839 121.057C20.256 121.219 19.745 121.294 18.9507 121.281L17.7788 121.262C17.7853 121.535 17.8146 121.786 17.8667 122.014C18.0425 122.827 18.4722 123.234 19.1558 123.234C19.2144 123.234 19.2762 123.231 19.3413 123.225C19.8491 123.16 20.217 122.88 20.4448 122.385L20.689 122.473ZM21.48 121.379C21.48 120.949 21.5614 120.565 21.7241 120.227C22.0692 119.517 22.6779 119.162 23.5503 119.162C23.9019 119.162 24.2274 119.237 24.5269 119.387C24.95 119.602 25.1616 119.875 25.1616 120.207C25.1616 120.246 25.1551 120.288 25.1421 120.334C25.0835 120.529 24.9435 120.62 24.7222 120.607C24.644 120.601 24.5724 120.581 24.5073 120.549C24.4032 120.484 24.3315 120.321 24.2925 120.061C24.2729 119.95 24.2567 119.868 24.2437 119.816C24.172 119.543 23.9604 119.406 23.6089 119.406C23.381 119.406 23.1727 119.465 22.9839 119.582C22.5347 119.868 22.3101 120.438 22.3101 121.291C22.3101 121.773 22.4077 122.189 22.603 122.541C22.8634 123.003 23.2248 123.234 23.687 123.234C23.7391 123.234 23.7912 123.231 23.8433 123.225C24.3966 123.173 24.7938 122.889 25.0347 122.375L25.2886 122.463C25.243 122.574 25.1812 122.684 25.103 122.795C24.758 123.27 24.2469 123.508 23.5698 123.508C23.1141 123.508 22.7072 123.387 22.3491 123.146C21.7697 122.756 21.48 122.167 21.48 121.379ZM27.603 123.166C27.6421 123.166 27.6746 123.169 27.7007 123.176C27.7983 123.189 27.8472 123.267 27.8472 123.41H25.6499V123.166C25.8713 123.166 26.0308 123.15 26.1284 123.117C26.2977 123.059 26.3823 122.88 26.3823 122.58V117.307H25.6499V117.062H27.1147V120.197C27.1864 120.008 27.2905 119.839 27.4272 119.689C27.7528 119.338 28.1564 119.162 28.6382 119.162C28.8465 119.162 29.0418 119.208 29.2241 119.299C29.6929 119.553 29.9272 120.035 29.9272 120.744V123.166H30.4155C30.4546 123.166 30.4871 123.169 30.5132 123.176C30.6108 123.189 30.6597 123.267 30.6597 123.41H28.5112V123.166C28.7326 123.166 28.8888 123.15 28.98 123.117C29.1232 123.059 29.1948 122.88 29.1948 122.58V120.744C29.1948 120.529 29.159 120.334 29.0874 120.158C28.9312 119.787 28.6545 119.602 28.2573 119.602C28.075 119.602 27.8993 119.657 27.73 119.768C27.3198 120.035 27.1147 120.464 27.1147 121.057V123.166H27.603ZM33.1108 123.166C33.1499 123.166 33.1825 123.169 33.2085 123.176C33.3062 123.189 33.355 123.267 33.355 123.41H31.2065V123.166C31.4279 123.166 31.5874 123.15 31.6851 123.117C31.8543 123.059 31.939 122.88 31.939 122.58V119.504H31.2065V119.26H32.6226L32.6616 120.236C32.7332 120.054 32.8276 119.888 32.9448 119.738C33.2573 119.354 33.6545 119.162 34.1362 119.162C34.3771 119.162 34.6017 119.224 34.8101 119.348C35.2593 119.628 35.4839 120.093 35.4839 120.744V123.166H35.9722C36.0112 123.166 36.0438 123.169 36.0698 123.176C36.1675 123.189 36.2163 123.267 36.2163 123.41H34.019V123.166C34.2404 123.166 34.3999 123.15 34.4976 123.117C34.6668 123.059 34.7515 122.88 34.7515 122.58V120.646C34.7515 120.458 34.7222 120.288 34.6636 120.139C34.5203 119.768 34.2502 119.582 33.853 119.582C33.6707 119.582 33.4917 119.637 33.3159 119.748C32.9058 120.015 32.6909 120.451 32.6714 121.057V123.166H33.1108ZM37.6812 121.33C37.6812 121.61 37.7039 121.864 37.7495 122.092C37.9188 122.873 38.3322 123.264 38.9897 123.264C39.1134 123.264 39.2339 123.247 39.3511 123.215C39.95 123.026 40.2495 122.385 40.2495 121.291C40.2495 121.102 40.2397 120.93 40.2202 120.773C40.103 119.862 39.6831 119.406 38.9604 119.406C38.8042 119.406 38.6545 119.432 38.5112 119.484C37.9578 119.706 37.6812 120.321 37.6812 121.33ZM38.9897 119.162C39.4194 119.162 39.8133 119.276 40.1714 119.504C40.7769 119.901 41.0796 120.51 41.0796 121.33C41.0796 121.936 40.8908 122.44 40.5132 122.844C40.103 123.286 39.5854 123.508 38.9604 123.508C38.5177 123.508 38.1141 123.384 37.7495 123.137C37.1506 122.727 36.8511 122.111 36.8511 121.291C36.8511 120.699 37.0431 120.204 37.4272 119.807C37.8439 119.377 38.3647 119.162 38.9897 119.162ZM43.7847 123.166C43.8237 123.166 43.8563 123.169 43.8823 123.176C43.98 123.189 44.0288 123.267 44.0288 123.41H41.7925V123.166C42.0138 123.166 42.1733 123.15 42.271 123.117C42.4403 123.059 42.5249 122.88 42.5249 122.58V117.307H41.7925V117.062H43.2573V123.166H43.7847ZM45.5132 121.33C45.5132 121.61 45.536 121.864 45.5815 122.092C45.7508 122.873 46.1642 123.264 46.8218 123.264C46.9455 123.264 47.0659 123.247 47.1831 123.215C47.7821 123.026 48.0815 122.385 48.0815 121.291C48.0815 121.102 48.0718 120.93 48.0522 120.773C47.9351 119.862 47.5151 119.406 46.7925 119.406C46.6362 119.406 46.4865 119.432 46.3433 119.484C45.7899 119.706 45.5132 120.321 45.5132 121.33ZM46.8218 119.162C47.2515 119.162 47.6453 119.276 48.0034 119.504C48.6089 119.901 48.9116 120.51 48.9116 121.33C48.9116 121.936 48.7228 122.44 48.3452 122.844C47.9351 123.286 47.4175 123.508 46.7925 123.508C46.3498 123.508 45.9461 123.384 45.5815 123.137C44.9826 122.727 44.6831 122.111 44.6831 121.291C44.6831 120.699 44.8752 120.204 45.2593 119.807C45.6759 119.377 46.1968 119.162 46.8218 119.162ZM50.5718 120.705C50.5783 121.584 50.9038 122.03 51.5483 122.043C52.1799 122.036 52.5021 121.59 52.5151 120.705C52.5086 119.852 52.1864 119.419 51.5483 119.406C50.9103 119.413 50.5848 119.846 50.5718 120.705ZM51.5581 119.162C51.8966 119.162 52.2124 119.237 52.5054 119.387C52.5444 119.263 52.5998 119.149 52.6714 119.045C52.8602 118.771 53.1076 118.635 53.4136 118.635C53.4852 118.635 53.5568 118.648 53.6284 118.674C53.8172 118.745 53.9116 118.882 53.9116 119.084C53.8856 119.253 53.7912 119.357 53.6284 119.396C53.5698 119.396 53.5047 119.364 53.4331 119.299C53.3289 119.201 53.2313 119.152 53.1401 119.152C53.1141 119.152 53.0881 119.156 53.062 119.162C52.8993 119.201 52.7886 119.325 52.73 119.533C53.1011 119.826 53.2899 120.217 53.2964 120.705C53.2964 121.089 53.1727 121.421 52.9253 121.701C52.5802 122.092 52.118 122.287 51.5386 122.287L50.6792 122.277C50.6271 122.277 50.5783 122.281 50.5327 122.287C50.3179 122.333 50.2104 122.44 50.2104 122.609C50.217 122.85 50.37 122.98 50.6694 123L52.4468 123.039C52.5379 123.039 52.6258 123.046 52.7104 123.059C53.355 123.143 53.6772 123.465 53.6772 124.025C53.6772 124.208 53.6252 124.38 53.521 124.543C53.202 125.025 52.5477 125.266 51.5581 125.266C51.1675 125.266 50.8387 125.207 50.5718 125.09C50.1486 124.914 49.937 124.647 49.937 124.289C49.937 124.055 50.0444 123.824 50.2593 123.596C49.9858 123.426 49.8459 123.169 49.8394 122.824C49.8394 122.74 49.8491 122.655 49.8687 122.57C49.9728 122.212 50.2332 122.033 50.6499 122.033C50.6043 122.007 50.5588 121.978 50.5132 121.945C50.0314 121.62 49.7905 121.21 49.7905 120.715C49.7905 120.337 49.9142 120.008 50.1616 119.729C50.5067 119.351 50.9722 119.162 51.5581 119.162ZM51.5581 125.012C51.8641 125.012 52.1473 124.979 52.4077 124.914C52.9416 124.784 53.2085 124.576 53.2085 124.289C53.2085 124.211 53.1987 124.146 53.1792 124.094C53.1011 123.879 52.8179 123.768 52.3296 123.762L50.8257 123.742C50.741 123.742 50.6336 123.729 50.5034 123.703C50.3537 123.879 50.2756 124.055 50.269 124.23C50.269 124.322 50.2918 124.413 50.3374 124.504C50.5067 124.842 50.9136 125.012 51.5581 125.012ZM55.0054 124.963C55.0965 124.963 55.1877 124.943 55.2788 124.904C55.5978 124.768 55.9396 124.27 56.3042 123.41L54.5464 119.514H54.0679V119.26H55.9722V119.514H55.3179L56.6558 122.639L57.9058 119.514H57.1929V119.26H58.6772C58.6772 119.318 58.6707 119.367 58.6577 119.406C58.6382 119.478 58.5633 119.514 58.4331 119.514C58.3745 119.514 58.3224 119.52 58.2769 119.533C58.1987 119.559 58.1271 119.663 58.062 119.846L56.6167 123.41C56.4735 123.762 56.3237 124.064 56.1675 124.318C55.7899 124.95 55.3439 125.266 54.8296 125.266C54.6864 125.266 54.5496 125.24 54.4194 125.188C54.133 125.077 53.9897 124.898 53.9897 124.65C53.9897 124.631 53.993 124.608 53.9995 124.582C54.0321 124.4 54.1525 124.309 54.3608 124.309C54.439 124.309 54.5073 124.328 54.5659 124.367C54.631 124.413 54.6994 124.533 54.771 124.729C54.8231 124.885 54.9012 124.963 55.0054 124.963ZM63.7065 117.805H62.6421V120.539H63.5405C63.6187 120.539 63.6968 120.536 63.7749 120.529C64.5301 120.445 64.9077 119.979 64.9077 119.133C64.9077 118.938 64.8817 118.755 64.8296 118.586C64.6603 118.065 64.286 117.805 63.7065 117.805ZM63.6187 123.41H61.021V123.156H61.8022V117.805H61.021V117.551H63.9116C64.3283 117.551 64.6864 117.622 64.9858 117.766C65.5457 118.026 65.8257 118.479 65.8257 119.123C65.8257 119.423 65.7573 119.686 65.6206 119.914C65.2756 120.52 64.5692 120.822 63.5015 120.822H62.6421V123.156H63.3647C63.3973 123.156 63.4299 123.16 63.4624 123.166C63.5666 123.186 63.6187 123.267 63.6187 123.41ZM69.937 123.508C69.4813 123.501 69.2144 123.208 69.1362 122.629C69.0776 122.766 68.9897 122.896 68.8726 123.02C68.547 123.345 68.1466 123.508 67.6714 123.508C67.4761 123.508 67.2905 123.472 67.1147 123.4C66.6785 123.218 66.4604 122.88 66.4604 122.385C66.4604 122.242 66.48 122.108 66.519 121.984C66.7404 121.346 67.616 121.027 69.146 121.027V120.412C69.1265 119.781 68.8107 119.445 68.1987 119.406C67.9383 119.406 67.7463 119.488 67.6226 119.65C67.59 119.696 67.5282 119.839 67.437 120.08C67.3654 120.269 67.2547 120.363 67.105 120.363C67.0724 120.363 67.0399 120.36 67.0073 120.354C66.8185 120.321 66.7241 120.204 66.7241 120.002C66.7241 119.891 66.7632 119.781 66.8413 119.67C67.0887 119.331 67.577 119.162 68.3062 119.162C68.3647 119.162 68.4233 119.162 68.4819 119.162C69.4129 119.214 69.8784 119.706 69.8784 120.637V122.697C69.8849 123.023 69.9728 123.192 70.1421 123.205C70.3504 123.199 70.4774 122.958 70.5229 122.482L70.7769 122.492C70.7769 122.525 70.7736 122.561 70.7671 122.6C70.715 123.205 70.4383 123.508 69.937 123.508ZM67.9937 123.117C68.1369 123.117 68.2834 123.085 68.4331 123.02C68.8107 122.837 69.0483 122.521 69.146 122.072V121.291C68.6382 121.298 68.2508 121.33 67.9839 121.389C67.4826 121.506 67.2319 121.783 67.2319 122.219C67.2319 122.329 67.2417 122.43 67.2612 122.521C67.3524 122.919 67.5965 123.117 67.9937 123.117ZM71.021 119.504V119.26H71.7046V118.332L72.437 118.127V119.26H73.9507V119.504H72.437V122.473C72.4435 122.961 72.6226 123.212 72.9741 123.225C73.2866 123.179 73.5243 122.886 73.687 122.346L73.9507 122.395C73.9507 122.401 73.9507 122.408 73.9507 122.414C73.8009 123.15 73.4266 123.518 72.8276 123.518C72.1245 123.492 71.7502 123.072 71.7046 122.258V119.504H71.021ZM76.1968 123.166C76.2358 123.166 76.2684 123.169 76.2944 123.176C76.3921 123.189 76.4409 123.267 76.4409 123.41H74.2925V123.166C74.5138 123.166 74.6733 123.15 74.771 123.117C74.9403 123.059 75.0249 122.88 75.0249 122.58V119.504H74.2925V119.26H75.7085L75.7476 120.236C75.8192 120.054 75.9136 119.888 76.0308 119.738C76.3433 119.354 76.7404 119.162 77.2222 119.162C77.4631 119.162 77.6877 119.224 77.896 119.348C78.3452 119.628 78.5698 120.093 78.5698 120.744V123.166H79.0581C79.0972 123.166 79.1297 123.169 79.1558 123.176C79.2534 123.189 79.3022 123.267 79.3022 123.41H77.105V123.166C77.3263 123.166 77.4858 123.15 77.5835 123.117C77.7528 123.059 77.8374 122.88 77.8374 122.58V120.646C77.8374 120.458 77.8081 120.288 77.7495 120.139C77.6063 119.768 77.3361 119.582 76.939 119.582C76.7567 119.582 76.5776 119.637 76.4019 119.748C75.9917 120.015 75.7769 120.451 75.7573 121.057V123.166H76.1968ZM83.3647 123.508C82.909 123.501 82.6421 123.208 82.564 122.629C82.5054 122.766 82.4175 122.896 82.3003 123.02C81.9748 123.345 81.5744 123.508 81.0991 123.508C80.9038 123.508 80.7183 123.472 80.5425 123.4C80.1063 123.218 79.8882 122.88 79.8882 122.385C79.8882 122.242 79.9077 122.108 79.9468 121.984C80.1681 121.346 81.0438 121.027 82.5737 121.027V120.412C82.5542 119.781 82.2384 119.445 81.6265 119.406C81.366 119.406 81.174 119.488 81.0503 119.65C81.0177 119.696 80.9559 119.839 80.8647 120.08C80.7931 120.269 80.6825 120.363 80.5327 120.363C80.5002 120.363 80.4676 120.36 80.4351 120.354C80.2463 120.321 80.1519 120.204 80.1519 120.002C80.1519 119.891 80.1909 119.781 80.269 119.67C80.5164 119.331 81.0047 119.162 81.7339 119.162C81.7925 119.162 81.8511 119.162 81.9097 119.162C82.8407 119.214 83.3062 119.706 83.3062 120.637V122.697C83.3127 123.023 83.4006 123.192 83.5698 123.205C83.7782 123.199 83.9051 122.958 83.9507 122.482L84.2046 122.492C84.2046 122.525 84.2013 122.561 84.1948 122.6C84.1427 123.205 83.866 123.508 83.3647 123.508ZM81.4214 123.117C81.5646 123.117 81.7111 123.085 81.8608 123.02C82.2384 122.837 82.4761 122.521 82.5737 122.072V121.291C82.0659 121.298 81.6785 121.33 81.4116 121.389C80.9103 121.506 80.6597 121.783 80.6597 122.219C80.6597 122.329 80.6694 122.43 80.689 122.521C80.7801 122.919 81.0243 123.117 81.4214 123.117Z" fill="white"/>
<path d="M93.5988 97.4436L86.629 83.3848L85.1355 86.2935C84.7653 88.5281 84.836 89.657 85.1355 91.6261L88.1225 97.4436H93.5988Z" fill="white"/>
<path d="M79.6592 95.9892L83.1441 89.687L85.6333 93.5653C85.9244 95.4174 85.9378 96.3559 85.1355 97.4436H79.6592V95.9892Z" fill="white"/>
<path d="M69.7026 92.5953V83.8691H68.209C66.3442 84.7654 65.6017 85.5218 64.7241 87.2626V97.4432H71.6939C74.1325 96.5363 74.8248 95.41 75.1789 92.5953H69.7026Z" fill="white"/>
<path d="M49.7888 83.3848H60.2436C60.5131 85.5187 59.6357 86.1937 57.7543 87.2631H49.7888C48.0239 87.9907 47.4426 88.6768 46.8018 90.1718V86.7783C47.3614 85.2515 47.7113 84.4125 49.7888 83.3848Z" fill="white"/>
<path d="M48.7931 88.7174C47.9804 89.1011 47.66 89.4251 47.2996 90.1718C47.5553 91.6812 47.9706 92.0586 48.7931 92.5957H58.2522C60.1572 91.0671 60.2851 90.2495 58.2522 88.7174H48.7931Z" fill="white"/>
<path d="M57.7543 93.5653C59.0283 93.0683 59.5957 92.4474 60.2436 91.1414C60.6404 92.8717 60.5906 93.833 60.2436 95.5044C59.4109 96.7974 58.8549 97.1835 57.7543 97.4436H47.2996C47.3188 95.7487 47.518 94.8632 49.7888 94.0501L57.7543 93.5653Z" fill="white"/>
<path d="M41.3256 83.3848H29.8752C28.8971 84.4502 28.8278 85.2583 29.8752 86.2935H41.3256C42.4497 85.3076 42.4574 84.6085 41.3256 83.3848Z" fill="white"/>
<path d="M43.3167 89.2022H27.8835C26.9129 90.5176 26.9633 91.1567 27.8835 92.1109H43.3167C44.4974 90.9094 44.4334 90.3789 43.3167 89.2022Z" fill="white"/>
<path d="M29.8752 95.0197H41.3256C42.3772 95.988 42.3014 96.5173 41.3256 97.4436H29.8752C28.973 96.5511 28.9291 96.0206 29.8752 95.0197Z" fill="white"/>
<path d="M23.9005 83.3848H12.9479C11.2261 84.6671 10.9091 85.5457 10.9565 87.2631H15.4371V95.0197C16.82 97.2134 17.723 97.5301 19.4199 97.4436V87.2631H21.4113C23.7758 86.0516 24.0152 85.1362 23.9005 83.3848Z" fill="white"/>
<path d="M35.8341 36.8438C32.3937 36.8438 29.8706 39.5428 29.8706 42.6612C29.8706 45.9098 32.6071 48.4786 35.8341 48.4786C38.9641 48.4786 41.8189 46.1125 41.8189 42.6612C41.8189 39.4271 39.2505 36.8438 35.8341 36.8438ZM35.8551 47.4186C33.1441 47.4186 30.9481 45.2361 30.9481 42.6612C30.9481 40.1883 33.0061 37.893 35.8556 37.893C38.5663 37.893 40.7414 39.9915 40.7414 42.661C40.7411 45.5155 38.3402 47.4186 35.8551 47.4186Z" fill="#FFD700"/>
<path d="M35.8358 37.8145C32.9688 37.8145 30.8662 40.0636 30.8662 42.6623C30.8662 45.3695 33.1467 47.5102 35.8358 47.5102C38.4441 47.5102 40.8231 45.5384 40.8231 42.6623C40.8231 39.9673 38.6828 37.8145 35.8358 37.8145ZM35.8533 46.6268C33.5941 46.6268 31.7641 44.8081 31.7641 42.6623C31.7641 40.6016 33.4791 38.6888 35.8537 38.6888C38.1127 38.6888 39.9252 40.4376 39.9252 42.6621C39.925 45.0409 37.9242 46.6268 35.8533 46.6268Z" fill="#FFD700"/>
<path d="M30.3685 43.1465L29.8706 43.6313V44.1161V44.6008L30.3685 44.1161V43.1465Z" fill="#FFD700"/>
<path d="M32.8577 46.0552L31.3641 46.54H30.3685V46.0552H32.8577Z" fill="#FFD700"/>
</svg>
