<?xml version="1.0" standalone="no"?>
<!DOCTYPE svg PUBLIC "-//W3C//DTD SVG 20010904//EN"
 "http://www.w3.org/TR/2001/REC-SVG-20010904/DTD/svg10.dtd">
<svg version="1.0" xmlns="http://www.w3.org/2000/svg"
 width="126.000000pt" height="126.000000pt" viewBox="0 0 126.000000 126.000000"
 preserveAspectRatio="xMidYMid meet">
<metadata>
Created by potrace 1.14, written by Peter Selinger 2001-2017
</metadata>
<g transform="translate(0.000000,126.000000) scale(0.100000,-0.100000)"
fill="#000000" stroke="none">
<path d="M536 1111 l-88 -88 -1 -104 -2 -104 -103 0 -103 -1 -92 -92 -92 -92
92 -92 91 -91 104 -1 103 -1 1 -103 1 -103 89 -90 c49 -49 91 -89 94 -89 3 0
49 43 103 97 68 67 95 99 87 107 -12 12 -13 155 -1 175 6 10 32 12 107 10 l99
-3 95 92 94 93 -92 91 -91 92 -103 1 -103 0 -2 104 -1 104 -88 88 c-49 49 -93
89 -99 89 -6 0 -50 -40 -99 -89z m194 -201 l0 -101 -96 3 -96 3 -4 98 -3 97
99 0 100 0 0 -100z m-12 -152 c36 -22 72 -85 72 -128 0 -14 -9 -44 -19 -67
-36 -77 -150 -109 -221 -60 -91 62 -92 194 -1 254 45 31 120 31 169 1z m-268
-128 l0 -100 -100 0 -100 0 0 100 0 100 100 0 100 0 0 -100z m565 0 l0 -95
-97 -3 -98 -3 0 101 0 101 98 -3 97 -3 0 -95z m-285 -280 l0 -100 -100 0 -100
0 0 100 0 100 100 0 100 0 0 -100z"/>
</g>
</svg>
